<svg width="334" height="128" viewBox="0 0 334 128" fill="none" xmlns="http://www.w3.org/2000/svg">
<g clip-path="url(#clip0_7_54)">
<mask id="path-1-outside-1_7_54" maskUnits="userSpaceOnUse" x="280" y="24" width="33" height="86" fill="black">
<rect fill="white" x="280" y="24" width="33" height="86"/>
<path d="M287.072 106.872L284 29.176L309.344 27.64L304.992 106.872H287.072Z"/>
</mask>
<path d="M287.072 106.872L284 29.176L309.344 27.64L304.992 106.872H287.072Z" fill="#F00E08"/>
<path d="M287.072 106.872L284.074 106.991L284.188 109.872H287.072V106.872ZM284 29.176L283.819 26.1815L280.886 26.3592L281.002 29.2945L284 29.176ZM309.344 27.64L312.339 27.8045L312.524 24.4418L309.163 24.6455L309.344 27.64ZM304.992 106.872V109.872H307.832L307.987 107.037L304.992 106.872ZM290.07 106.753L286.998 29.0575L281.002 29.2945L284.074 106.991L290.07 106.753ZM284.181 32.1705L309.525 30.6345L309.163 24.6455L283.819 26.1815L284.181 32.1705ZM306.349 27.4755L301.997 106.707L307.987 107.037L312.339 27.8045L306.349 27.4755ZM304.992 103.872H287.072V109.872H304.992V103.872Z" fill="black" mask="url(#path-1-outside-1_7_54)"/>
<mask id="path-3-outside-2_7_54" maskUnits="userSpaceOnUse" x="237" y="14" width="57" height="97" fill="black">
<rect fill="white" x="237" y="14" width="57" height="97"/>
<path d="M286.824 56.44H268.776L270.312 62.968L280.168 59.64V76.024L270.312 79.352L272.104 105.464L244.2 107.128L245.864 53.24L241 49.912L247.656 18.936L290.024 17.272L286.824 56.44Z"/>
</mask>
<path d="M286.824 56.44H268.776L270.312 62.968L280.168 59.64V76.024L270.312 79.352L272.104 105.464L244.2 107.128L245.864 53.24L241 49.912L247.656 18.936L290.024 17.272L286.824 56.44Z" fill="#F00E08"/>
<path d="M286.824 56.44V59.44H289.589L289.814 56.6843L286.824 56.44ZM268.776 56.44V53.44H264.988L265.856 57.1271L268.776 56.44ZM270.312 62.968L267.392 63.6551L268.147 66.8654L271.272 65.8103L270.312 62.968ZM280.168 59.64H283.168V55.4606L279.208 56.7977L280.168 59.64ZM280.168 76.024L281.128 78.8663L283.168 78.1774V76.024H280.168ZM270.312 79.352L269.352 76.5097L267.161 77.2497L267.319 79.5574L270.312 79.352ZM272.104 105.464L272.283 108.459L275.304 108.278L275.097 105.259L272.104 105.464ZM244.2 107.128L241.201 107.035L241.1 110.318L244.379 110.123L244.2 107.128ZM245.864 53.24L248.863 53.3326L248.913 51.6913L247.558 50.7641L245.864 53.24ZM241 49.912L238.067 49.2818L237.644 51.2507L239.306 52.3879L241 49.912ZM247.656 18.936L247.538 15.9383L245.212 16.0297L244.723 18.3058L247.656 18.936ZM290.024 17.272L293.014 17.5163L293.29 14.1414L289.906 14.2743L290.024 17.272ZM286.824 53.44H268.776V59.44H286.824V53.44ZM265.856 57.1271L267.392 63.6551L273.232 62.2809L271.696 55.7529L265.856 57.1271ZM271.272 65.8103L281.128 62.4823L279.208 56.7977L269.352 60.1257L271.272 65.8103ZM277.168 59.64V76.024H283.168V59.64H277.168ZM279.208 73.1817L269.352 76.5097L271.272 82.1943L281.128 78.8663L279.208 73.1817ZM267.319 79.5574L269.111 105.669L275.097 105.259L273.305 79.1466L267.319 79.5574ZM271.925 102.469L244.021 104.133L244.379 110.123L272.283 108.459L271.925 102.469ZM247.199 107.221L248.863 53.3326L242.865 53.1474L241.201 107.035L247.199 107.221ZM247.558 50.7641L242.694 47.4361L239.306 52.3879L244.17 55.7159L247.558 50.7641ZM243.933 50.5422L250.589 19.5662L244.723 18.3058L238.067 49.2818L243.933 50.5422ZM247.774 21.9337L290.142 20.2697L289.906 14.2743L247.538 15.9383L247.774 21.9337ZM287.034 17.0277L283.834 56.1957L289.814 56.6843L293.014 17.5163L287.034 17.0277Z" fill="black" mask="url(#path-3-outside-2_7_54)"/>
<mask id="path-5-outside-3_7_54" maskUnits="userSpaceOnUse" x="163" y="25" width="64" height="85" fill="black">
<rect fill="white" x="163" y="25" width="64" height="85"/>
<path d="M197.36 31.608C200.517 31.352 203.504 31.0533 206.32 30.712C208.795 30.456 211.312 30.2 213.872 29.944C216.517 29.6027 218.779 29.2187 220.656 28.792C221.083 32.632 221.595 37.24 222.192 42.616C222.789 47.992 223.173 53.5813 223.344 59.384C223.515 65.1867 223.301 70.9467 222.704 76.664C222.192 82.296 221.04 87.3733 219.248 91.896C217.456 96.4187 214.896 100.088 211.568 102.904C208.325 105.635 204.059 107 198.768 107C193.221 107 188.485 105.763 184.56 103.288C180.72 100.728 177.477 97.3573 174.832 93.176C172.272 88.9947 170.309 84.216 168.944 78.84C167.664 73.3787 166.811 67.7467 166.384 61.944C165.957 56.1413 165.957 50.3813 166.384 44.664C166.811 38.9467 167.493 33.656 168.432 28.792L188.912 34.552C188.656 35.4907 188.229 37.4533 187.632 40.44C187.12 43.3413 186.651 46.7547 186.224 50.68C185.883 54.52 185.669 58.5733 185.584 62.84C185.499 67.1067 185.797 71.032 186.48 74.616C187.248 78.1147 188.443 81.016 190.064 83.32C191.771 85.624 194.203 86.776 197.36 86.776C199.323 86.776 200.816 85.7093 201.84 83.576C202.864 81.4427 203.504 78.712 203.76 75.384C204.101 72.056 204.144 68.3013 203.888 64.12C203.632 59.9387 203.163 55.8 202.48 51.704C201.883 47.608 201.115 43.8107 200.176 40.312C199.237 36.728 198.299 33.8267 197.36 31.608Z"/>
</mask>
<path d="M197.36 31.608C200.517 31.352 203.504 31.0533 206.32 30.712C208.795 30.456 211.312 30.2 213.872 29.944C216.517 29.6027 218.779 29.2187 220.656 28.792C221.083 32.632 221.595 37.24 222.192 42.616C222.789 47.992 223.173 53.5813 223.344 59.384C223.515 65.1867 223.301 70.9467 222.704 76.664C222.192 82.296 221.04 87.3733 219.248 91.896C217.456 96.4187 214.896 100.088 211.568 102.904C208.325 105.635 204.059 107 198.768 107C193.221 107 188.485 105.763 184.56 103.288C180.72 100.728 177.477 97.3573 174.832 93.176C172.272 88.9947 170.309 84.216 168.944 78.84C167.664 73.3787 166.811 67.7467 166.384 61.944C165.957 56.1413 165.957 50.3813 166.384 44.664C166.811 38.9467 167.493 33.656 168.432 28.792L188.912 34.552C188.656 35.4907 188.229 37.4533 187.632 40.44C187.12 43.3413 186.651 46.7547 186.224 50.68C185.883 54.52 185.669 58.5733 185.584 62.84C185.499 67.1067 185.797 71.032 186.48 74.616C187.248 78.1147 188.443 81.016 190.064 83.32C191.771 85.624 194.203 86.776 197.36 86.776C199.323 86.776 200.816 85.7093 201.84 83.576C202.864 81.4427 203.504 78.712 203.76 75.384C204.101 72.056 204.144 68.3013 203.888 64.12C203.632 59.9387 203.163 55.8 202.48 51.704C201.883 47.608 201.115 43.8107 200.176 40.312C199.237 36.728 198.299 33.8267 197.36 31.608Z" fill="#FFF713"/>
<path d="M197.36 31.608L197.118 28.6178L192.979 28.9533L194.597 32.7769L197.36 31.608ZM206.32 30.712L206.011 27.7279L205.985 27.7306L205.959 27.7338L206.32 30.712ZM213.872 29.944L214.171 32.9291L214.213 32.9248L214.256 32.9193L213.872 29.944ZM220.656 28.792L223.638 28.4607L223.267 25.1222L219.991 25.8666L220.656 28.792ZM222.192 42.616L219.21 42.9473L219.21 42.9473L222.192 42.616ZM223.344 59.384L220.345 59.4722L223.344 59.384ZM222.704 76.664L219.72 76.3523L219.718 76.3723L219.716 76.3924L222.704 76.664ZM219.248 91.896L216.459 90.7909L216.459 90.7909L219.248 91.896ZM211.568 102.904L213.5 105.199L213.506 105.194L211.568 102.904ZM184.56 103.288L182.896 105.784L182.928 105.805L182.96 105.826L184.56 103.288ZM174.832 93.176L172.273 94.7425L172.285 94.7613L172.297 94.7799L174.832 93.176ZM168.944 78.84L166.023 79.5246L166.029 79.5516L166.036 79.5785L168.944 78.84ZM166.384 61.944L169.376 61.724L169.376 61.724L166.384 61.944ZM166.384 44.664L163.392 44.4407L166.384 44.664ZM168.432 28.792L169.244 25.904L166.104 25.021L165.486 28.2235L168.432 28.792ZM188.912 34.552L191.806 35.3413L192.589 32.4699L189.724 31.664L188.912 34.552ZM187.632 40.44L184.69 39.8516L184.684 39.8851L184.678 39.9186L187.632 40.44ZM186.224 50.68L183.242 50.3558L183.238 50.3851L183.236 50.4144L186.224 50.68ZM185.584 62.84L182.585 62.78L185.584 62.84ZM186.48 74.616L183.533 75.1773L183.541 75.2184L183.55 75.2592L186.48 74.616ZM190.064 83.32L187.611 85.0465L187.632 85.0763L187.653 85.1057L190.064 83.32ZM201.84 83.576L199.135 82.2778L199.135 82.2778L201.84 83.576ZM203.76 75.384L200.776 75.0779L200.772 75.1159L200.769 75.1539L203.76 75.384ZM203.888 64.12L200.894 64.3033L200.894 64.3033L203.888 64.12ZM202.48 51.704L199.511 52.1369L199.516 52.1671L199.521 52.1972L202.48 51.704ZM200.176 40.312L197.274 41.0721L197.276 41.0807L197.278 41.0894L200.176 40.312ZM197.602 34.5982C200.795 34.3393 203.821 34.0368 206.681 33.6902L205.959 27.7338C203.187 28.0698 200.24 28.3647 197.118 28.6178L197.602 34.5982ZM206.629 33.6961C209.1 33.4404 211.614 33.1848 214.171 32.9291L213.573 26.9589C211.01 27.2152 208.489 27.4716 206.011 27.7279L206.629 33.6961ZM214.256 32.9193C216.963 32.5701 219.323 32.1714 221.321 31.7174L219.991 25.8666C218.234 26.2659 216.072 26.6352 213.488 26.9687L214.256 32.9193ZM217.674 29.1233C218.101 32.9633 218.613 37.5713 219.21 42.9473L225.174 42.2847C224.576 36.9087 224.064 32.3007 223.638 28.4607L217.674 29.1233ZM219.21 42.9473C219.798 48.2369 220.177 53.7449 220.345 59.4722L226.343 59.2958C226.17 53.4178 225.781 47.7471 225.174 42.2847L219.21 42.9473ZM220.345 59.4722C220.512 65.1427 220.304 70.7691 219.72 76.3523L225.688 76.9757C226.299 71.1243 226.517 65.2306 226.343 59.2958L220.345 59.4722ZM219.716 76.3924C219.226 81.7838 218.13 86.5743 216.459 90.7909L222.037 93.0011C223.95 88.1723 225.158 82.8082 225.692 76.9356L219.716 76.3924ZM216.459 90.7909C214.827 94.9086 212.539 98.1524 209.63 100.614L213.506 105.194C217.253 102.024 220.085 97.9287 222.037 93.0011L216.459 90.7909ZM209.636 100.609C207.058 102.78 203.532 104 198.768 104V110C204.585 110 209.593 108.489 213.5 105.199L209.636 100.609ZM198.768 104C193.676 104 189.52 102.868 186.16 100.75L182.96 105.826C187.451 108.657 192.767 110 198.768 110V104ZM186.224 100.792C182.758 98.4814 179.804 95.4243 177.367 91.5721L172.297 94.7799C175.15 99.2904 178.682 102.975 182.896 105.784L186.224 100.792ZM177.391 91.6095C175.007 87.7163 173.152 83.2233 171.852 78.1015L166.036 79.5785C167.466 85.2087 169.537 90.273 172.273 94.7425L177.391 91.6095ZM171.865 78.1554C170.622 72.8524 169.792 67.376 169.376 61.724L163.392 62.164C163.83 68.1173 164.706 73.9049 166.023 79.5246L171.865 78.1554ZM169.376 61.724C168.96 56.0667 168.96 50.4549 169.376 44.8873L163.392 44.4407C162.954 50.3078 162.955 56.216 163.392 62.164L169.376 61.724ZM169.376 44.8873C169.795 39.2682 170.464 34.0943 171.378 29.3605L165.486 28.2235C164.523 33.2177 163.826 38.6251 163.392 44.4407L169.376 44.8873ZM167.62 31.68L188.1 37.4399L189.724 31.664L169.244 25.904L167.62 31.68ZM186.018 33.7626C185.73 34.8186 185.284 36.8851 184.69 39.8516L190.574 41.0283C191.175 38.0215 191.582 36.1627 191.806 35.3413L186.018 33.7626ZM184.678 39.9186C184.151 42.903 183.673 46.3851 183.242 50.3558L189.206 51.0042C189.628 47.1243 190.089 43.7796 190.586 40.9614L184.678 39.9186ZM183.236 50.4144C182.888 54.3295 182.671 58.4518 182.585 62.78L188.583 62.9C188.668 58.6948 188.878 54.7104 189.212 50.9456L183.236 50.4144ZM182.585 62.78C182.496 67.2209 182.805 71.3576 183.533 75.1773L189.427 74.0547C188.789 70.7064 188.502 66.9924 188.583 62.9L182.585 62.78ZM183.55 75.2592C184.381 79.0455 185.707 82.3412 187.611 85.0465L192.517 81.5935C191.178 79.6908 190.115 77.1838 189.41 73.9728L183.55 75.2592ZM187.653 85.1057C189.989 88.2587 193.363 89.776 197.36 89.776V83.776C195.042 83.776 193.552 82.9893 192.475 81.5343L187.653 85.1057ZM197.36 89.776C198.921 89.776 200.404 89.3398 201.696 88.4172C202.956 87.5169 203.875 86.2682 204.545 84.8742L199.135 82.2778C198.781 83.0171 198.441 83.3684 198.208 83.5348C198.007 83.6789 197.762 83.776 197.36 83.776V89.776ZM204.545 84.8742C205.781 82.2985 206.477 79.1723 206.751 75.6141L200.769 75.1539C200.531 78.2517 199.947 80.5868 199.135 82.2778L204.545 84.8742ZM206.744 75.6901C207.106 72.1649 207.146 68.2424 206.882 63.9367L200.894 64.3033C201.142 68.3603 201.097 71.9471 200.776 75.0779L206.744 75.6901ZM206.882 63.9367C206.62 59.6524 206.139 55.4103 205.439 51.2108L199.521 52.1972C200.186 56.1897 200.644 60.2249 200.894 64.3033L206.882 63.9367ZM205.449 51.2711C204.837 47.075 204.047 43.1612 203.074 39.5346L197.278 41.0894C198.183 44.4601 198.929 48.141 199.511 52.1369L205.449 51.2711ZM203.078 39.5519C202.12 35.8941 201.139 32.841 200.123 30.4391L194.597 32.7769C195.458 34.8123 196.355 37.5619 197.274 41.0721L203.078 39.5519Z" fill="black" mask="url(#path-5-outside-3_7_54)"/>
<mask id="path-7-outside-4_7_54" maskUnits="userSpaceOnUse" x="119" y="26" width="63" height="86" fill="black">
<rect fill="white" x="119" y="26" width="63" height="86"/>
<path d="M176.76 36.344L152.696 74.488L175.352 94.328L158.456 107L142.84 88.568V105.592L125.816 107L123 29.048H145.656L144.248 56.056L155.512 31.992L176.76 36.344Z"/>
</mask>
<path d="M176.76 36.344L152.696 74.488L175.352 94.328L158.456 107L142.84 88.568V105.592L125.816 107L123 29.048H145.656L144.248 56.056L155.512 31.992L176.76 36.344Z" fill="#FFF713"/>
<path d="M176.76 36.344L179.297 37.9447L181.612 34.2755L177.362 33.405L176.76 36.344ZM152.696 74.488L150.159 72.8873L148.791 75.0558L150.72 76.7449L152.696 74.488ZM175.352 94.328L177.152 96.728L180.112 94.5083L177.328 92.0711L175.352 94.328ZM158.456 107L156.167 108.939L157.994 111.096L160.256 109.4L158.456 107ZM142.84 88.568L145.129 86.6287L139.84 80.386V88.568H142.84ZM142.84 105.592L143.087 108.582L145.84 108.354V105.592H142.84ZM125.816 107L122.818 107.108L122.931 110.249L126.063 109.99L125.816 107ZM123 29.048V26.048H119.89L120.002 29.1563L123 29.048ZM145.656 29.048L148.652 29.2042L148.816 26.048H145.656V29.048ZM144.248 56.056L141.252 55.8998L146.965 57.3278L144.248 56.056ZM155.512 31.992L156.114 29.053L153.797 28.5785L152.795 30.7202L155.512 31.992ZM174.223 34.7433L150.159 72.8873L155.233 76.0887L179.297 37.9447L174.223 34.7433ZM150.72 76.7449L173.376 96.5849L177.328 92.0711L154.672 72.2311L150.72 76.7449ZM173.552 91.928L156.656 104.6L160.256 109.4L177.152 96.728L173.552 91.928ZM160.745 105.061L145.129 86.6287L140.551 90.5073L156.167 108.939L160.745 105.061ZM139.84 88.568V105.592H145.84V88.568H139.84ZM142.593 102.602L125.569 104.01L126.063 109.99L143.087 108.582L142.593 102.602ZM128.814 106.892L125.998 28.9397L120.002 29.1563L122.818 107.108L128.814 106.892ZM123 32.048H145.656V26.048H123V32.048ZM142.66 28.8918L141.252 55.8998L147.244 56.2122L148.652 29.2042L142.66 28.8918ZM146.965 57.3278L158.229 33.2638L152.795 30.7202L141.531 54.7842L146.965 57.3278ZM154.91 34.931L176.158 39.283L177.362 33.405L156.114 29.053L154.91 34.931Z" fill="black" mask="url(#path-7-outside-4_7_54)"/>
<mask id="path-9-outside-5_7_54" maskUnits="userSpaceOnUse" x="78" y="40" width="57" height="57" fill="black">
<rect fill="white" x="78" y="40" width="57" height="57"/>
<path d="M107.024 43.128C110.437 43.128 113.595 43.768 116.496 45.048C119.483 46.2427 122.043 47.9493 124.176 50.168C126.395 52.3013 128.101 54.8613 129.296 57.848C130.576 60.7493 131.216 63.9067 131.216 67.32C131.216 70.8187 130.576 74.1467 129.296 77.304C128.101 80.4613 126.395 83.2347 124.176 85.624C122.043 87.928 119.483 89.8053 116.496 91.256C113.595 92.6213 110.437 93.304 107.024 93.304C103.525 93.304 100.197 92.6213 97.04 91.256C93.8827 89.8053 91.152 87.928 88.848 85.624C86.4587 83.2347 84.5813 80.4613 83.216 77.304C81.7653 74.1467 81.04 70.8187 81.04 67.32C81.04 63.9067 81.7653 60.7493 83.216 57.848C84.5813 54.8613 86.4587 52.3013 88.848 50.168C91.152 47.9493 93.8827 46.2427 97.04 45.048C100.197 43.768 103.525 43.128 107.024 43.128ZM112.272 69.112L117.264 63.864H110.48L107.024 57.08L105.232 63.864H96.528L103.568 69.112L99.984 77.816L107.024 72.568L113.936 77.816L112.272 69.112Z"/>
</mask>
<path d="M107.024 43.128C110.437 43.128 113.595 43.768 116.496 45.048C119.483 46.2427 122.043 47.9493 124.176 50.168C126.395 52.3013 128.101 54.8613 129.296 57.848C130.576 60.7493 131.216 63.9067 131.216 67.32C131.216 70.8187 130.576 74.1467 129.296 77.304C128.101 80.4613 126.395 83.2347 124.176 85.624C122.043 87.928 119.483 89.8053 116.496 91.256C113.595 92.6213 110.437 93.304 107.024 93.304C103.525 93.304 100.197 92.6213 97.04 91.256C93.8827 89.8053 91.152 87.928 88.848 85.624C86.4587 83.2347 84.5813 80.4613 83.216 77.304C81.7653 74.1467 81.04 70.8187 81.04 67.32C81.04 63.9067 81.7653 60.7493 83.216 57.848C84.5813 54.8613 86.4587 52.3013 88.848 50.168C91.152 47.9493 93.8827 46.2427 97.04 45.048C100.197 43.768 103.525 43.128 107.024 43.128ZM112.272 69.112L117.264 63.864H110.48L107.024 57.08L105.232 63.864H96.528L103.568 69.112L99.984 77.816L107.024 72.568L113.936 77.816L112.272 69.112Z" fill="#FFF713"/>
<path d="M116.496 45.048L115.285 47.7928L115.333 47.8139L115.382 47.8334L116.496 45.048ZM124.176 50.168L122.014 52.2473L122.054 52.2897L122.097 52.3305L124.176 50.168ZM129.296 57.848L126.511 58.9622L126.53 59.0109L126.551 59.0589L129.296 57.848ZM129.296 77.304L126.516 76.1769L126.503 76.2095L126.49 76.2423L129.296 77.304ZM124.176 85.624L121.978 83.5826L121.975 83.5858L124.176 85.624ZM116.496 91.256L117.773 93.9705L117.79 93.9626L117.807 93.9545L116.496 91.256ZM97.04 91.256L95.7875 93.982L95.8182 93.9961L95.8493 94.0096L97.04 91.256ZM88.848 85.624L90.9693 83.5027L90.9693 83.5027L88.848 85.624ZM83.216 77.304L85.9696 76.1133L85.9561 76.0822L85.942 76.0515L83.216 77.304ZM83.216 57.848L85.8993 59.1896L85.9227 59.1429L85.9444 59.0953L83.216 57.848ZM88.848 50.168L90.846 52.4058L90.8882 52.3682L90.9289 52.329L88.848 50.168ZM97.04 45.048L98.1017 47.8539L98.1345 47.8414L98.1671 47.8282L97.04 45.048ZM112.272 69.112L110.098 67.0444L109.036 68.1613L109.325 69.6753L112.272 69.112ZM117.264 63.864L119.438 65.9316L124.258 60.864H117.264V63.864ZM110.48 63.864L107.807 65.2258L108.641 66.864H110.48V63.864ZM107.024 57.08L109.697 55.7182L106.13 48.7167L104.123 56.3138L107.024 57.08ZM105.232 63.864V66.864H107.542L108.133 64.6302L105.232 63.864ZM96.528 63.864V60.864H87.4841L94.735 66.2692L96.528 63.864ZM103.568 69.112L106.342 70.2542L107.229 68.0995L105.361 66.7068L103.568 69.112ZM99.984 77.816L97.21 76.6737L93.0795 86.7048L101.777 80.2212L99.984 77.816ZM107.024 72.568L108.838 70.1787L107.041 68.8138L105.231 70.1628L107.024 72.568ZM113.936 77.816L112.122 80.2053L118.351 84.9351L116.883 77.2527L113.936 77.816ZM107.024 46.128C110.053 46.128 112.794 46.6936 115.285 47.7928L117.707 42.3032C114.396 40.8424 110.822 40.128 107.024 40.128V46.128ZM115.382 47.8334C117.991 48.8771 120.189 50.3497 122.014 52.2473L126.339 48.0887C123.897 45.549 120.974 43.6082 117.61 42.2626L115.382 47.8334ZM122.097 52.3305C123.994 54.1552 125.467 56.3529 126.511 58.9622L132.081 56.7338C130.736 53.3698 128.795 50.4475 126.255 48.0055L122.097 52.3305ZM126.551 59.0589C127.65 61.5503 128.216 64.2914 128.216 67.32H134.216C134.216 63.5219 133.502 59.9484 132.041 56.6371L126.551 59.0589ZM128.216 67.32C128.216 70.4429 127.647 73.3873 126.516 76.1769L132.076 78.4311C133.505 74.906 134.216 71.1944 134.216 67.32H128.216ZM126.49 76.2423C125.428 79.05 123.923 81.4876 121.978 83.5826L126.374 87.6654C128.866 84.9817 130.775 81.8727 132.102 78.3657L126.49 76.2423ZM121.975 83.5858C120.109 85.6008 117.856 87.2602 115.185 88.5575L117.807 93.9545C121.109 92.3505 123.976 90.2552 126.377 87.6622L121.975 83.5858ZM115.219 88.5415C112.742 89.7068 110.025 90.304 107.024 90.304V96.304C110.85 96.304 114.447 95.5358 117.773 93.9705L115.219 88.5415ZM107.024 90.304C103.928 90.304 101.006 89.7024 98.2307 88.5024L95.8493 94.0096C99.3891 95.5403 103.123 96.304 107.024 96.304V90.304ZM98.2925 88.53C95.4367 87.2179 93.0056 85.5389 90.9693 83.5027L86.7267 87.7453C89.2984 90.3171 92.3286 92.3928 95.7875 93.982L98.2925 88.53ZM90.9693 83.5027C88.8524 81.3858 87.1875 78.9297 85.9696 76.1133L80.4624 78.4947C81.9752 81.993 84.0649 85.0836 86.7267 87.7453L90.9693 83.5027ZM85.942 76.0515C84.6732 73.2898 84.04 70.3894 84.04 67.32H78.04C78.04 71.2479 78.8575 75.0035 80.49 78.5565L85.942 76.0515ZM84.04 67.32C84.04 64.3474 84.6678 61.6526 85.8993 59.1896L80.5327 56.5064C78.8629 59.8461 78.04 63.466 78.04 67.32H84.04ZM85.9444 59.0953C87.1418 56.4759 88.7739 54.2559 90.846 52.4058L86.85 47.9302C84.1434 50.3467 82.0208 53.2467 80.4876 56.6007L85.9444 59.0953ZM90.9289 52.329C92.9243 50.4075 95.3028 48.9129 98.1017 47.8539L95.9783 42.2421C92.4625 43.5725 89.3797 45.4912 86.7671 48.007L90.9289 52.329ZM98.1671 47.8282C100.957 46.6973 103.901 46.128 107.024 46.128V40.128C103.15 40.128 99.438 40.8387 95.9129 42.2678L98.1671 47.8282ZM114.446 71.1796L119.438 65.9316L115.09 61.7964L110.098 67.0444L114.446 71.1796ZM117.264 60.864H110.48V66.864H117.264V60.864ZM113.153 62.5022L109.697 55.7182L104.351 58.4418L107.807 65.2258L113.153 62.5022ZM104.123 56.3138L102.331 63.0978L108.133 64.6302L109.925 57.8462L104.123 56.3138ZM105.232 60.864H96.528V66.864H105.232V60.864ZM94.735 66.2692L101.775 71.5172L105.361 66.7068L98.321 61.4588L94.735 66.2692ZM100.794 67.9697L97.21 76.6737L102.758 78.9582L106.342 70.2542L100.794 67.9697ZM101.777 80.2212L108.817 74.9732L105.231 70.1628L98.191 75.4108L101.777 80.2212ZM105.21 74.9573L112.122 80.2053L115.75 75.4267L108.838 70.1787L105.21 74.9573ZM116.883 77.2527L115.219 68.5487L109.325 69.6753L110.989 78.3793L116.883 77.2527Z" fill="black" mask="url(#path-9-outside-5_7_54)"/>
<mask id="path-11-outside-6_7_54" maskUnits="userSpaceOnUse" x="217" y="56" width="32" height="32" fill="black">
<rect fill="white" x="217" y="56" width="32" height="32"/>
<path d="M233.512 59.064C235.219 59.064 236.797 59.384 238.248 60.024C239.741 60.6213 241.021 61.4747 242.088 62.584C243.197 63.6507 244.051 64.9307 244.648 66.424C245.288 67.8747 245.608 69.4533 245.608 71.16C245.608 72.9093 245.288 74.5733 244.648 76.152C244.051 77.7307 243.197 79.1173 242.088 80.312C241.021 81.464 239.741 82.4027 238.248 83.128C236.797 83.8107 235.219 84.152 233.512 84.152C231.763 84.152 230.099 83.8107 228.52 83.128C226.941 82.4027 225.576 81.464 224.424 80.312C223.229 79.1173 222.291 77.7307 221.608 76.152C220.883 74.5733 220.52 72.9093 220.52 71.16C220.52 69.4533 220.883 67.8747 221.608 66.424C222.291 64.9307 223.229 63.6507 224.424 62.584C225.576 61.4747 226.941 60.6213 228.52 60.024C230.099 59.384 231.763 59.064 233.512 59.064ZM236.136 72.056L238.632 69.432H235.24L233.512 66.04L232.616 69.432H228.264L231.784 72.056L229.992 76.408L233.512 73.784L236.968 76.408L236.136 72.056Z"/>
</mask>
<path d="M233.512 59.064C235.219 59.064 236.797 59.384 238.248 60.024C239.741 60.6213 241.021 61.4747 242.088 62.584C243.197 63.6507 244.051 64.9307 244.648 66.424C245.288 67.8747 245.608 69.4533 245.608 71.16C245.608 72.9093 245.288 74.5733 244.648 76.152C244.051 77.7307 243.197 79.1173 242.088 80.312C241.021 81.464 239.741 82.4027 238.248 83.128C236.797 83.8107 235.219 84.152 233.512 84.152C231.763 84.152 230.099 83.8107 228.52 83.128C226.941 82.4027 225.576 81.464 224.424 80.312C223.229 79.1173 222.291 77.7307 221.608 76.152C220.883 74.5733 220.52 72.9093 220.52 71.16C220.52 69.4533 220.883 67.8747 221.608 66.424C222.291 64.9307 223.229 63.6507 224.424 62.584C225.576 61.4747 226.941 60.6213 228.52 60.024C230.099 59.384 231.763 59.064 233.512 59.064ZM236.136 72.056L238.632 69.432H235.24L233.512 66.04L232.616 69.432H228.264L231.784 72.056L229.992 76.408L233.512 73.784L236.968 76.408L236.136 72.056Z" fill="url(#paint0_radial_7_54)"/>
<path d="M238.248 60.024L237.037 62.7688L237.085 62.7899L237.134 62.8094L238.248 60.024ZM242.088 62.584L239.926 64.6633L239.966 64.7057L240.009 64.7465L242.088 62.584ZM244.648 66.424L241.863 67.5382L241.882 67.5869L241.903 67.6349L244.648 66.424ZM244.648 76.152L241.868 75.0249L241.855 75.0575L241.842 75.0903L244.648 76.152ZM242.088 80.312L239.89 78.2706L239.887 78.2738L242.088 80.312ZM238.248 83.128L239.525 85.8425L239.542 85.8346L239.559 85.8265L238.248 83.128ZM228.52 83.128L227.267 85.854L227.298 85.8681L227.329 85.8816L228.52 83.128ZM224.424 80.312L226.545 78.1907L226.545 78.1907L224.424 80.312ZM221.608 76.152L224.362 74.9613L224.348 74.9302L224.334 74.8995L221.608 76.152ZM221.608 66.424L224.291 67.7656L224.315 67.7189L224.336 67.6713L221.608 66.424ZM224.424 62.584L226.422 64.8218L226.464 64.7842L226.505 64.745L224.424 62.584ZM228.52 60.024L229.582 62.8299L229.615 62.8174L229.647 62.8042L228.52 60.024ZM236.136 72.056L233.962 69.9884L232.9 71.1053L233.189 72.6193L236.136 72.056ZM238.632 69.432L240.806 71.4996L245.626 66.432H238.632V69.432ZM235.24 69.432L232.567 70.7938L233.401 72.432H235.24V69.432ZM233.512 66.04L236.185 64.6782L232.618 57.6767L230.611 65.2738L233.512 66.04ZM232.616 69.432V72.432H234.926L235.517 70.1982L232.616 69.432ZM228.264 69.432V66.432H219.22L226.471 71.8372L228.264 69.432ZM231.784 72.056L234.558 73.1982L235.445 71.0435L233.577 69.6508L231.784 72.056ZM229.992 76.408L227.218 75.2657L223.088 85.2968L231.785 78.8132L229.992 76.408ZM233.512 73.784L235.326 71.3947L233.529 70.0298L231.719 71.3788L233.512 73.784ZM236.968 76.408L235.154 78.7973L241.383 83.5271L239.915 75.8447L236.968 76.408ZM233.512 62.064C234.834 62.064 235.996 62.3096 237.037 62.7688L239.459 57.2792C237.598 56.4584 235.603 56.064 233.512 56.064V62.064ZM237.134 62.8094C238.25 63.2558 239.167 63.875 239.926 64.6633L244.25 60.5047C242.875 59.0743 241.233 57.9868 239.362 57.2386L237.134 62.8094ZM240.009 64.7465C240.797 65.5045 241.416 66.4222 241.863 67.5382L247.433 65.3098C246.685 63.4391 245.598 61.7968 244.167 60.4215L240.009 64.7465ZM241.903 67.6349C242.362 68.6756 242.608 69.838 242.608 71.16H248.608C248.608 69.0686 248.214 67.0737 247.393 65.2131L241.903 67.6349ZM242.608 71.16C242.608 72.5336 242.359 73.814 241.868 75.0249L247.428 77.2791C248.217 75.3327 248.608 73.2851 248.608 71.16H242.608ZM241.842 75.0903C241.377 76.3193 240.726 77.3703 239.89 78.2706L244.286 82.3534C245.669 80.8644 246.724 79.142 247.454 77.2137L241.842 75.0903ZM239.887 78.2738C239.088 79.1368 238.115 79.8575 236.937 80.4295L239.559 85.8265C241.368 84.9478 242.955 83.7912 244.289 82.3502L239.887 78.2738ZM236.971 80.4135C235.945 80.8962 234.806 81.152 233.512 81.152V87.152C235.631 87.152 237.65 86.7252 239.525 85.8425L236.971 80.4135ZM233.512 81.152C232.165 81.152 230.907 80.8917 229.711 80.3744L227.329 85.8816C229.29 86.7296 231.36 87.152 233.512 87.152V81.152ZM229.773 80.402C228.495 79.8152 227.43 79.0749 226.545 78.1907L222.303 82.4333C223.722 83.8531 225.387 84.9901 227.267 85.854L229.773 80.402ZM226.545 78.1907C225.623 77.2684 224.897 76.199 224.362 74.9613L218.854 77.3427C219.685 79.2623 220.836 80.9662 222.303 82.4333L226.545 78.1907ZM224.334 74.8995C223.79 73.7165 223.52 72.4801 223.52 71.16H217.52C217.52 73.3386 217.975 75.4302 218.882 77.4045L224.334 74.8995ZM223.52 71.16C223.52 69.894 223.785 68.7779 224.291 67.7656L218.925 65.0824C217.98 66.9714 217.52 69.0126 217.52 71.16H223.52ZM224.336 67.6713C224.851 66.5453 225.545 65.6053 226.422 64.8218L222.426 60.3462C220.914 61.6961 219.73 63.316 218.88 65.1767L224.336 67.6713ZM226.505 64.745C227.348 63.9328 228.362 63.2915 229.582 62.8299L227.458 57.2181C225.521 57.9511 223.804 59.0165 222.343 60.423L226.505 64.745ZM229.647 62.8042C230.858 62.3133 232.138 62.064 233.512 62.064V56.064C231.387 56.064 229.339 56.4547 227.393 57.2438L229.647 62.8042ZM238.31 74.1236L240.806 71.4996L236.458 67.3644L233.962 69.9884L238.31 74.1236ZM238.632 66.432H235.24V72.432H238.632V66.432ZM237.913 68.0702L236.185 64.6782L230.839 67.4018L232.567 70.7938L237.913 68.0702ZM230.611 65.2738L229.715 68.6658L235.517 70.1982L236.413 66.8062L230.611 65.2738ZM232.616 66.432H228.264V72.432H232.616V66.432ZM226.471 71.8372L229.991 74.4612L233.577 69.6508L230.057 67.0268L226.471 71.8372ZM229.01 70.9138L227.218 75.2657L232.766 77.5502L234.558 73.1982L229.01 70.9138ZM231.785 78.8132L235.305 76.1892L231.719 71.3788L228.199 74.0028L231.785 78.8132ZM231.698 76.1733L235.154 78.7973L238.782 74.0187L235.326 71.3947L231.698 76.1733ZM239.915 75.8447L239.083 71.4927L233.189 72.6193L234.021 76.9713L239.915 75.8447Z" fill="black" mask="url(#path-11-outside-6_7_54)"/>
<mask id="path-13-outside-7_7_54" maskUnits="userSpaceOnUse" x="12" y="14" width="82" height="96" fill="black">
<rect fill="white" x="12" y="14" width="82" height="96"/>
<path d="M88.216 50.04C89.1547 52.5147 89.6667 54.648 89.752 56.44C89.9227 58.1467 90.008 59.8107 90.008 61.432V69.624C89.1547 74.9147 87.576 79.864 85.272 84.472C82.968 88.9947 80.1093 92.92 76.696 96.248C73.368 99.576 69.6133 102.221 65.432 104.184C61.2507 106.061 56.8987 107 52.376 107C47.0853 107 42.1787 105.763 37.656 103.288C33.1333 100.813 29.1653 97.528 25.752 93.432C22.424 89.2507 19.7787 84.4293 17.816 78.968C15.9387 73.4213 15 67.576 15 61.432C15 55.3733 15.9387 49.6987 17.816 44.408C19.7787 39.032 22.424 34.3813 25.752 30.456C29.1653 26.4453 33.1333 23.288 37.656 20.984C42.1787 18.68 47.0853 17.528 52.376 17.528C56.0453 17.528 59.5867 18.1253 63 19.32C66.4133 20.4293 69.6133 22.0507 72.6 24.184C75.5867 26.3173 78.2747 28.92 80.664 31.992C83.0533 34.9787 85.0587 38.3067 86.68 41.976L63.896 48.376C63.4693 47.1813 62.872 46.2 62.104 45.432C61.4213 44.5787 60.6107 43.896 59.672 43.384C58.8187 42.872 57.88 42.5307 56.856 42.36C55.9173 42.104 55.0213 41.976 54.168 41.976C52.12 41.976 50.2 42.36 48.408 43.128C46.7013 43.896 45.1653 45.0053 43.8 46.456C42.4347 47.8213 41.368 49.528 40.6 51.576C39.832 53.5387 39.448 55.7573 39.448 58.232C39.448 60.28 39.832 62.2853 40.6 64.248C41.368 66.1253 42.4347 67.832 43.8 69.368C45.1653 70.904 46.7013 72.1413 48.408 73.08C50.2 74.0187 52.12 74.488 54.168 74.488C55.8747 74.488 57.7093 73.8053 59.672 72.44C61.72 71.0747 63.128 69.5387 63.896 67.832L47.64 66.296V50.04H65.56H88.216Z"/>
</mask>
<path d="M88.216 50.04C89.1547 52.5147 89.6667 54.648 89.752 56.44C89.9227 58.1467 90.008 59.8107 90.008 61.432V69.624C89.1547 74.9147 87.576 79.864 85.272 84.472C82.968 88.9947 80.1093 92.92 76.696 96.248C73.368 99.576 69.6133 102.221 65.432 104.184C61.2507 106.061 56.8987 107 52.376 107C47.0853 107 42.1787 105.763 37.656 103.288C33.1333 100.813 29.1653 97.528 25.752 93.432C22.424 89.2507 19.7787 84.4293 17.816 78.968C15.9387 73.4213 15 67.576 15 61.432C15 55.3733 15.9387 49.6987 17.816 44.408C19.7787 39.032 22.424 34.3813 25.752 30.456C29.1653 26.4453 33.1333 23.288 37.656 20.984C42.1787 18.68 47.0853 17.528 52.376 17.528C56.0453 17.528 59.5867 18.1253 63 19.32C66.4133 20.4293 69.6133 22.0507 72.6 24.184C75.5867 26.3173 78.2747 28.92 80.664 31.992C83.0533 34.9787 85.0587 38.3067 86.68 41.976L63.896 48.376C63.4693 47.1813 62.872 46.2 62.104 45.432C61.4213 44.5787 60.6107 43.896 59.672 43.384C58.8187 42.872 57.88 42.5307 56.856 42.36C55.9173 42.104 55.0213 41.976 54.168 41.976C52.12 41.976 50.2 42.36 48.408 43.128C46.7013 43.896 45.1653 45.0053 43.8 46.456C42.4347 47.8213 41.368 49.528 40.6 51.576C39.832 53.5387 39.448 55.7573 39.448 58.232C39.448 60.28 39.832 62.2853 40.6 64.248C41.368 66.1253 42.4347 67.832 43.8 69.368C45.1653 70.904 46.7013 72.1413 48.408 73.08C50.2 74.0187 52.12 74.488 54.168 74.488C55.8747 74.488 57.7093 73.8053 59.672 72.44C61.72 71.0747 63.128 69.5387 63.896 67.832L47.64 66.296V50.04H65.56H88.216Z" fill="#FFF713"/>
<path d="M88.216 50.04L91.021 48.976L90.2866 47.04H88.216V50.04ZM89.752 56.44L86.7554 56.5827L86.7591 56.6608L86.7669 56.7385L89.752 56.44ZM90.008 69.624L92.9697 70.1017L93.008 69.8644V69.624H90.008ZM85.272 84.472L87.9451 85.8338L87.9502 85.8237L87.9553 85.8136L85.272 84.472ZM76.696 96.248L74.6017 94.1L74.5881 94.1133L74.5747 94.1267L76.696 96.248ZM65.432 104.184L66.6608 106.921L66.6838 106.91L66.7067 106.9L65.432 104.184ZM37.656 103.288L36.216 105.92L36.216 105.92L37.656 103.288ZM25.752 93.432L23.4047 95.3002L23.4257 95.3266L23.4473 95.3526L25.752 93.432ZM17.816 78.968L14.9744 79.9298L14.9833 79.9563L14.9928 79.9826L17.816 78.968ZM17.816 44.408L14.9979 43.3792L14.9933 43.392L14.9887 43.4048L17.816 44.408ZM25.752 30.456L23.4674 28.5116L23.4637 28.5159L25.752 30.456ZM37.656 20.984L36.2942 18.3109L36.2942 18.3109L37.656 20.984ZM63 19.32L62.009 22.1516L62.0407 22.1627L62.0727 22.1731L63 19.32ZM72.6 24.184L70.8563 26.6252L70.8563 26.6252L72.6 24.184ZM80.664 31.992L78.2959 33.8338L78.3086 33.85L78.3214 33.8661L80.664 31.992ZM86.68 41.976L87.4913 44.8642L90.8225 43.9285L89.4241 40.7635L86.68 41.976ZM63.896 48.376L61.0708 49.385L62.0123 52.0212L64.7073 51.2642L63.896 48.376ZM62.104 45.432L59.7614 47.3061L59.8652 47.4358L59.9827 47.5533L62.104 45.432ZM59.672 43.384L58.1285 45.9565L58.1814 45.9882L58.2354 46.0177L59.672 43.384ZM56.856 42.36L56.0666 45.2543L56.2131 45.2942L56.3628 45.3192L56.856 42.36ZM48.408 43.128L47.2262 40.3706L47.2015 40.3812L47.1769 40.3922L48.408 43.128ZM43.8 46.456L45.9213 48.5773L45.9535 48.5452L45.9846 48.5121L43.8 46.456ZM40.6 51.576L43.3937 52.6692L43.4015 52.6493L43.409 52.6294L40.6 51.576ZM40.6 64.248L37.8063 65.3412L37.8147 65.3626L37.8234 65.3839L40.6 64.248ZM43.8 69.368L41.5578 71.3611L41.5578 71.3611L43.8 69.368ZM48.408 73.08L46.9622 75.7086L46.989 75.7233L47.016 75.7375L48.408 73.08ZM59.672 72.44L58.0079 69.9438L57.9832 69.9603L57.9588 69.9773L59.672 72.44ZM63.896 67.832L66.6318 69.0631L68.3523 65.2397L64.1782 64.8453L63.896 67.832ZM47.64 66.296H44.64V69.0259L47.3578 69.2827L47.64 66.296ZM47.64 50.04V47.04H44.64V50.04H47.64ZM85.411 51.104C86.2857 53.41 86.6904 55.2174 86.7554 56.5827L92.7486 56.2973C92.643 54.0786 92.0236 51.6193 91.021 48.976L85.411 51.104ZM86.7669 56.7385C86.9282 58.3516 87.008 59.9159 87.008 61.432H93.008C93.008 59.7054 92.9171 57.9417 92.7371 56.1415L86.7669 56.7385ZM87.008 61.432V69.624H93.008V61.432H87.008ZM87.0463 69.1463C86.2394 74.1487 84.7512 78.8054 82.5887 83.1304L87.9553 85.8136C90.4008 80.9226 92.0699 75.6806 92.9697 70.1017L87.0463 69.1463ZM82.5989 83.1102C80.4339 87.3599 77.7657 91.0151 74.6017 94.1L78.7903 98.396C82.453 94.8249 85.5021 90.6294 87.9451 85.8338L82.5989 83.1102ZM74.5747 94.1267C71.4876 97.2138 68.0181 99.6561 64.1573 101.468L66.7067 106.9C71.2085 104.787 75.2484 101.938 78.8173 98.3693L74.5747 94.1267ZM64.2032 101.447C60.403 103.153 56.4693 104 52.376 104V110C57.3281 110 62.0984 108.969 66.6608 106.921L64.2032 101.447ZM52.376 104C47.5749 104 43.1653 102.883 39.096 100.656L36.216 105.92C41.1921 108.643 46.5958 110 52.376 110V104ZM39.096 100.656C34.915 98.3685 31.2374 95.3283 28.0567 91.5114L23.4473 95.3526C27.0933 99.7277 31.3517 103.258 36.216 105.92L39.096 100.656ZM28.0993 91.5638C24.9923 87.6602 22.5005 83.1326 20.6392 77.9534L14.9928 79.9826C17.0568 85.7261 19.8557 90.8412 23.4047 95.3002L28.0993 91.5638ZM20.6576 78.0062C18.8903 72.7844 18 67.2651 18 61.432H12C12 67.8869 12.9871 74.0583 14.9744 79.9298L20.6576 78.0062ZM18 61.432C18 55.688 18.889 50.3551 20.6433 45.4112L14.9887 43.4048C12.9883 49.0422 12 55.0587 12 61.432H18ZM20.6341 45.4368C22.4888 40.3563 24.9655 36.0227 28.0403 32.396L23.4637 28.5159C19.8825 32.7399 17.0685 37.7076 14.9979 43.3792L20.6341 45.4368ZM28.0366 32.4003C31.2033 28.6795 34.8611 25.7747 39.0178 23.6571L36.2942 18.3109C31.4056 20.8013 27.1274 24.2111 23.4674 28.5116L28.0366 32.4003ZM39.0178 23.6571C43.1006 21.5772 47.538 20.528 52.376 20.528V14.528C46.6327 14.528 41.2567 15.7828 36.2942 18.3109L39.0178 23.6571ZM52.376 20.528C55.7129 20.528 58.9189 21.07 62.009 22.1516L63.9911 16.4884C60.2545 15.1806 56.3778 14.528 52.376 14.528V20.528ZM62.0727 22.1731C65.1879 23.1855 68.1134 24.666 70.8563 26.6252L74.3437 21.7428C71.1133 19.4353 67.6388 17.6731 63.9273 16.4669L62.0727 22.1731ZM70.8563 26.6252C73.5931 28.5801 76.0739 30.9769 78.2959 33.8338L83.0321 30.1502C80.4754 26.8631 77.5802 24.0546 74.3437 21.7428L70.8563 26.6252ZM78.3214 33.8661C80.5412 36.6408 82.4142 39.7445 83.9359 43.1885L89.4241 40.7635C87.7031 36.8688 85.5655 33.3165 83.0066 30.1179L78.3214 33.8661ZM85.8687 39.0878L63.0847 45.4878L64.7073 51.2642L87.4913 44.8642L85.8687 39.0878ZM66.7212 47.367C66.1701 45.8239 65.356 44.4413 64.2253 43.3107L59.9827 47.5533C60.388 47.9587 60.7686 48.5388 61.0708 49.385L66.7212 47.367ZM64.4466 43.5579C63.5209 42.4008 62.4044 41.4572 61.1086 40.7503L58.2354 46.0177C58.8169 46.3348 59.3218 46.7565 59.7614 47.3061L64.4466 43.5579ZM61.2155 40.8115C60.0256 40.0976 58.7282 39.6306 57.3492 39.4008L56.3628 45.3192C57.0318 45.4307 57.6118 45.6464 58.1285 45.9565L61.2155 40.8115ZM57.6454 39.4657C56.4847 39.1492 55.3222 38.976 54.168 38.976V44.976C54.7204 44.976 55.35 45.0588 56.0666 45.2543L57.6454 39.4657ZM54.168 38.976C51.7346 38.976 49.4104 39.4345 47.2262 40.3706L49.5898 45.8854C50.9896 45.2855 52.5054 44.976 54.168 44.976V38.976ZM47.1769 40.3922C45.0881 41.3322 43.2332 42.681 41.6154 44.3999L45.9846 48.5121C47.0975 47.3297 48.3146 46.4598 49.6391 45.8638L47.1769 40.3922ZM41.6787 44.3347C39.9727 46.0406 38.6894 48.1269 37.791 50.5226L43.409 52.6294C44.0466 50.9291 44.8966 49.602 45.9213 48.5773L41.6787 44.3347ZM37.8063 50.4828C36.8804 52.8488 36.448 55.4472 36.448 58.232H42.448C42.448 56.0674 42.7836 54.2285 43.3937 52.6692L37.8063 50.4828ZM36.448 58.232C36.448 60.665 36.906 63.0405 37.8063 65.3412L43.3937 63.1548C42.758 61.5302 42.448 59.895 42.448 58.232H36.448ZM37.8234 65.3839C38.7215 67.5793 39.9702 69.575 41.5578 71.3611L46.0422 67.3749C44.8992 66.089 44.0145 64.6714 43.3766 63.1121L37.8234 65.3839ZM41.5578 71.3611C43.1378 73.1386 44.9396 74.5962 46.9622 75.7086L49.8538 70.4514C48.4631 69.6865 47.1929 68.6694 46.0422 67.3749L41.5578 71.3611ZM47.016 75.7375C49.243 76.904 51.6414 77.488 54.168 77.488V71.488C52.5986 71.488 51.157 71.1333 49.8 70.4225L47.016 75.7375ZM54.168 77.488C56.6881 77.488 59.1147 76.4822 61.3852 74.9027L57.9588 69.9773C56.304 71.1285 55.0612 71.488 54.168 71.488V77.488ZM61.3361 74.9361C63.7084 73.3546 65.5702 71.4221 66.6318 69.0631L61.1602 66.6009C60.6858 67.6552 59.7316 68.7947 58.0079 69.9438L61.3361 74.9361ZM64.1782 64.8453L47.9222 63.3093L47.3578 69.2827L63.6138 70.8187L64.1782 64.8453ZM50.64 66.296V50.04H44.64V66.296H50.64ZM47.64 53.04H65.56V47.04H47.64V53.04ZM65.56 53.04H88.216V47.04H65.56V53.04Z" fill="black" mask="url(#path-13-outside-7_7_54)"/>
</g>
<defs>
<radialGradient id="paint0_radial_7_54" cx="0" cy="0" r="1" gradientUnits="userSpaceOnUse" gradientTransform="translate(233 72) rotate(90) scale(13 13.429)">
<stop stop-color="white"/>
<stop offset="1" stop-color="#ED9D00"/>
</radialGradient>
<clipPath id="clip0_7_54">
<rect width="334" height="128" fill="white"/>
</clipPath>
</defs>
</svg>
